<svg xmlns="http://www.w3.org/2000/svg" viewBox="0 0 1000 1000">
<polygon points="550,550 600,550 600,600 550,600 " fill="grey" stroke="black" />
<polygon points="518.3194,568.2964 561.6273,593.2849 536.6388,636.59283 493.3309,611.6043 " fill="grey" stroke="black" />
<polygon points="481.735,568.311 506.75797,611.599 463.46997,636.62195 438.447,593.334 " fill="grey" stroke="black" />
<polygon points="450.03983,550.0398 450.07962,600.0398 400.07965,600.0796 400.03986,550.0796 " fill="grey" stroke="black" />
<polygon points="431.7182,518.3738 406.76416,561.70154 363.4364,536.74756 388.3904,493.41977 " fill="grey" stroke="black" />
<polygon points="431.6745,481.7894 388.40643,506.84683 363.349,463.57877 406.61707,438.52133 " fill="grey" stroke="black" />
<polygon points="449.92044,450.07968 399.9205,450.1593 399.84088,400.15936 449.84082,400.07974 " fill="grey" stroke="black" />
<polygon points="481.57187,431.73285 438.22424,406.81335 463.14374,363.4657 506.4914,388.3852 " fill="grey" stroke="black" />
<polygon points="518.1562,431.66003 493.06433,388.41193 536.31244,363.32007 561.4043,406.56815 " fill="grey" stroke="black" />
<polygon points="549.88043,449.88074 549.761,399.88086 599.76086,399.76144 599.8803,449.7613 " fill="grey" stroke="black" />
<polygon points="568.25244,481.51752 593.13745,438.15002 636.5049,463.03503 611.61993,506.4025 " fill="grey" stroke="black" />
<polygon points="568.35443,518.1018 611.5825,492.9755 636.70886,536.2036 593.4807,561.3299 " fill="grey" stroke="black" />
</svg>
